<svg width="450" height="300" xmlns="http://www.w3.org/2000/svg">
<defs>
  <linearGradient id="bg" x1="0%" y1="0%" x2="100%" y2="100%">
    <stop offset="0%" style="stop-color:#0d1117;stop-opacity:1" />
    <stop offset="100%" style="stop-color:#161b22;stop-opacity:1" />
  </linearGradient>
  <linearGradient id="header" x1="0%" y1="0%" x2="100%" y2="0%">
    <stop offset="0%" style="stop-color:#f78166;stop-opacity:1" />
    <stop offset="50%" style="stop-color:#fa7970;stop-opacity:1" />
    <stop offset="100%" style="stop-color:#fd7e14;stop-opacity:1" />
  </linearGradient>
</defs>

<style>
.bg { fill: url(#bg); stroke: #30363d; stroke-width: 1; rx: 10; }
.header { fill: url(#header); rx: 10; }
.title { font: 600 16px 'Segoe UI', Ubuntu, sans-serif; fill: #fff; }
.subtitle { font: 400 12px 'Segoe UI', Ubuntu, sans-serif; fill: #fff; opacity: 0.9; }
.octocat { fill: #fff; }
.progress-bg { fill: #21262d; stroke: #30363d; stroke-width: 1; rx: 6; }
.lang-name { font: 600 12px 'Segoe UI', Ubuntu, sans-serif; fill: #e6edf3; }
.lang-percent { font: 500 11px 'Segoe UI', Ubuntu, sans-serif; fill: #7d8590; }
.lang-item { animation: slideIn 0.6s ease-out forwards; transform: translateX(-100%); }
.lang-item:nth-child(1) { animation-delay: 0.1s; }
.lang-item:nth-child(2) { animation-delay: 0.2s; }
.lang-item:nth-child(3) { animation-delay: 0.3s; }
.lang-item:nth-child(4) { animation-delay: 0.4s; }
.lang-item:nth-child(5) { animation-delay: 0.5s; }
.lang-item:nth-child(6) { animation-delay: 0.6s; }
.lang-item:nth-child(7) { animation-delay: 0.7s; }
.lang-item:nth-child(8) { animation-delay: 0.8s; }
@keyframes slideIn { to { transform: translateX(0); } }
</style>

<rect class="bg" x="5" y="5" width="440" height="290"/>
<rect class="header" x="5" y="5" width="440" height="45"/>

<!-- GitHub Octocat -->
<g transform="translate(15, 12)">
  <svg class="octocat" width="24" height="24" viewBox="0 0 16 16">
    <path d="M8 0C3.58 0 0 3.58 0 8c0 3.54 2.29 6.53 5.47 7.59.4.07.55-.17.55-.38 0-.19-.01-.82-.01-1.49-2.01.37-2.53-.49-2.69-.94-.09-.23-.48-.94-.82-1.13-.28-.15-.68-.52-.01-.53.63-.01 1.08.58 1.23.82.72 1.21 1.87.87 2.33.66.07-.52.28-.87.51-1.07-1.78-.2-3.64-.89-3.64-3.95 0-.87.31-1.59.82-2.15-.08-.2-.36-1.02.08-2.12 0 0 .67-.21 2.2.82.64-.18 1.32-.27 2-.27.68 0 1.36.09 2 .27 1.53-1.04 2.2-.82 2.2-.82.44 1.1.16 1.92.08 2.12.51.56.82 1.27.82 2.15 0 3.07-1.87 3.75-3.65 3.95.29.25.54.73.54 1.48 0 1.07-.01 1.93-.01 2.2 0 .21.15.46.55.38A8.013 8.013 0 0016 8c0-4.42-3.58-8-8-8z"/>
  </svg>
</g>

<text class="title" x="50" y="28">Most Used Languages</text>
<text class="subtitle" x="50" y="42">Based on repository file sizes</text>

<!-- Progress Bar -->
<rect class="progress-bg" x="20" y="65" width="410" height="12"/>
<g transform="translate(20, 65)">
  
</g>

<!-- Languages List -->
<g transform="translate(20, 95)">
  
</g>
</svg>